<mxfile host="app.diagrams.net" modified="2021-02-10T07:56:18.312Z" agent="5.0 (Windows NT 10.0; Win64; x64) AppleWebKit/537.36 (KHTML, like Gecko) Chrome/88.0.4324.146 Safari/537.36" etag="5UYmfNaZNqinLzf3fLfr" version="14.3.0" type="github">
  <diagram id="UdT6EaB8qHiLfvA5tDtB" name="Page-1">
    <mxGraphModel dx="868" dy="482" grid="1" gridSize="10" guides="1" tooltips="1" connect="1" arrows="1" fold="1" page="1" pageScale="1" pageWidth="850" pageHeight="1100" math="0" shadow="0">
      <root>
        <mxCell id="0" />
        <mxCell id="1" parent="0" />
        <mxCell id="kIl1VIsNgH0VMcjegRr7-1" value="Customer" style="shape=umlActor;verticalLabelPosition=bottom;verticalAlign=top;html=1;" vertex="1" parent="1">
          <mxGeometry x="370" y="40" width="55" height="110" as="geometry" />
        </mxCell>
        <mxCell id="kIl1VIsNgH0VMcjegRr7-2" value="Use reservation" style="ellipse;whiteSpace=wrap;html=1;" vertex="1" parent="1">
          <mxGeometry x="327.5" y="220" width="140" height="70" as="geometry" />
        </mxCell>
        <mxCell id="kIl1VIsNgH0VMcjegRr7-5" style="edgeStyle=orthogonalEdgeStyle;rounded=0;orthogonalLoop=1;jettySize=auto;html=1;exitX=0.5;exitY=0;exitDx=0;exitDy=0;entryX=0;entryY=1;entryDx=0;entryDy=0;" edge="1" parent="1" source="kIl1VIsNgH0VMcjegRr7-3" target="kIl1VIsNgH0VMcjegRr7-2">
          <mxGeometry relative="1" as="geometry" />
        </mxCell>
        <mxCell id="kIl1VIsNgH0VMcjegRr7-3" value="Locate parking lot" style="ellipse;whiteSpace=wrap;html=1;" vertex="1" parent="1">
          <mxGeometry x="210" y="370" width="140" height="70" as="geometry" />
        </mxCell>
        <mxCell id="kIl1VIsNgH0VMcjegRr7-6" style="edgeStyle=orthogonalEdgeStyle;rounded=0;orthogonalLoop=1;jettySize=auto;html=1;exitX=0.5;exitY=0;exitDx=0;exitDy=0;entryX=1;entryY=1;entryDx=0;entryDy=0;" edge="1" parent="1" source="kIl1VIsNgH0VMcjegRr7-4" target="kIl1VIsNgH0VMcjegRr7-2">
          <mxGeometry relative="1" as="geometry" />
        </mxCell>
        <mxCell id="kIl1VIsNgH0VMcjegRr7-4" value="Generate Authentication code" style="ellipse;whiteSpace=wrap;html=1;" vertex="1" parent="1">
          <mxGeometry x="450" y="370" width="140" height="70" as="geometry" />
        </mxCell>
        <mxCell id="kIl1VIsNgH0VMcjegRr7-8" value="" style="endArrow=none;html=1;" edge="1" parent="1">
          <mxGeometry width="50" height="50" relative="1" as="geometry">
            <mxPoint x="400" y="210" as="sourcePoint" />
            <mxPoint x="400" y="170" as="targetPoint" />
          </mxGeometry>
        </mxCell>
        <mxCell id="kIl1VIsNgH0VMcjegRr7-9" value="Includes" style="text;html=1;align=center;verticalAlign=middle;resizable=0;points=[];autosize=1;" vertex="1" parent="1">
          <mxGeometry x="280" y="310" width="60" height="20" as="geometry" />
        </mxCell>
        <mxCell id="kIl1VIsNgH0VMcjegRr7-10" value="Includes" style="text;html=1;align=center;verticalAlign=middle;resizable=0;points=[];autosize=1;" vertex="1" parent="1">
          <mxGeometry x="450" y="310" width="60" height="20" as="geometry" />
        </mxCell>
      </root>
    </mxGraphModel>
  </diagram>
</mxfile>
